<svg width="14" height="8" viewBox="0 0 14 8" fill="none" xmlns="http://www.w3.org/2000/svg">
<path d="M13.0423 3.36094C13.7418 2.85538 13.8732 1.91214 13.3357 1.25414C12.7982 0.596141 11.7954 0.472566 11.0959 0.978125L6.02938 4.63971C5.32984 5.14527 5.19846 6.08852 5.73594 6.74651C6.27342 7.40451 7.27622 7.52809 7.97576 7.02253L13.0423 3.36094Z" fill="#3A3A3C"/>
<path d="M2.90217 0.982921C2.20195 0.478192 1.19932 0.602958 0.662721 1.26159C0.126125 1.92023 0.258768 2.86332 0.958987 3.36805L6.03042 7.02361C6.73064 7.52834 7.73328 7.40358 8.26987 6.74494C8.80647 6.08631 8.67383 5.14321 7.97361 4.63849L2.90217 0.982921Z" fill="#3A3A3C"/>
</svg>
