<svg width="34" height="34" viewBox="0 0 34 34" fill="none" xmlns="http://www.w3.org/2000/svg">
<path d="M17.0002 33.6663C7.79516 33.6663 0.333496 26.2047 0.333496 16.9997C0.333496 7.79467 7.79516 0.333008 17.0002 0.333008C26.2052 0.333008 33.6668 7.79467 33.6668 16.9997C33.6668 26.2047 26.2052 33.6663 17.0002 33.6663ZM11.8168 18.9497L11.8385 18.938L13.2885 23.7213C13.4752 24.2397 13.7318 24.333 14.0435 24.2897C14.3568 24.248 14.5218 24.0797 14.7268 23.883L16.7068 21.9697L20.9568 25.1163C21.7335 25.5447 22.2918 25.323 22.4852 24.3963L25.2468 11.3597C25.5518 10.1463 25.0185 9.65967 24.0768 10.0463L7.85516 16.313C6.7485 16.7563 6.75516 17.3763 7.65516 17.6513L11.8168 18.9513V18.9497Z" fill="white"/>
</svg>
