<svg width="34" height="34" viewBox="0 0 34 34" fill="none" xmlns="http://www.w3.org/2000/svg">
<path d="M0.340185 33.6663L2.59352 25.3863C1.10875 22.8411 0.328678 19.9463 0.333518 16.9997C0.333518 7.79467 7.79519 0.333008 17.0002 0.333008C26.2052 0.333008 33.6669 7.79467 33.6669 16.9997C33.6669 26.2047 26.2052 33.6663 17.0002 33.6663C14.0548 33.6711 11.1613 32.8916 8.61685 31.408L0.340185 33.6663ZM10.9852 9.17967C10.77 9.19304 10.5596 9.24973 10.3669 9.34634C10.1861 9.44872 10.021 9.57672 9.87685 9.72634C9.67685 9.91467 9.56352 10.078 9.44185 10.2363C8.82587 11.038 8.49453 12.022 8.50019 13.033C8.50352 13.8497 8.71685 14.6447 9.05019 15.388C9.73185 16.8913 10.8535 18.483 12.3352 19.958C12.6919 20.313 13.0402 20.6697 13.4152 21.0013C15.2542 22.6204 17.4456 23.7881 19.8152 24.4113L20.7635 24.5563C21.0719 24.573 21.3802 24.5497 21.6902 24.5347C22.1756 24.5096 22.6495 24.3782 23.0785 24.1497C23.3552 24.003 23.4852 23.9297 23.7169 23.783C23.7169 23.783 23.7885 23.7363 23.9252 23.633C24.1502 23.4663 24.2885 23.348 24.4752 23.153C24.6135 23.0097 24.7335 22.8413 24.8252 22.6497C24.9552 22.378 25.0852 21.8597 25.1385 21.428C25.1785 21.098 25.1668 20.918 25.1618 20.8063C25.1552 20.628 25.0069 20.443 24.8452 20.3647L23.8752 19.9297C23.8752 19.9297 22.4252 19.298 21.5402 18.8947C21.4469 18.854 21.3469 18.8308 21.2452 18.8263C21.1312 18.8146 21.0159 18.8275 20.9073 18.864C20.7986 18.9005 20.699 18.9598 20.6152 19.038V19.0347C20.6069 19.0347 20.4952 19.1297 19.2902 20.5897C19.221 20.6826 19.1258 20.7528 19.0165 20.7914C18.9073 20.83 18.789 20.8352 18.6769 20.8063C18.5683 20.7773 18.4619 20.7405 18.3585 20.6963C18.1518 20.6097 18.0802 20.5763 17.9385 20.5147L17.9302 20.5113C16.9767 20.095 16.0939 19.5328 15.3135 18.8447C15.1035 18.6613 14.9085 18.4613 14.7085 18.268C14.0528 17.6401 13.4814 16.9297 13.0085 16.1547L12.9102 15.9963C12.8396 15.8899 12.7825 15.7752 12.7402 15.6547C12.6769 15.4097 12.8419 15.213 12.8419 15.213C12.8419 15.213 13.2469 14.7697 13.4352 14.5297C13.592 14.3302 13.7383 14.1227 13.8735 13.908C14.0702 13.5913 14.1319 13.2663 14.0285 13.0147C13.5619 11.8747 13.0785 10.7397 12.5819 9.61301C12.4835 9.38967 12.1919 9.22967 11.9269 9.19801C11.8369 9.18801 11.7469 9.17801 11.6569 9.17134C11.433 9.16022 11.2087 9.16245 10.9852 9.17801V9.17967Z" fill="white"/>
</svg>
