<svg width="173" height="173" viewBox="0 0 173 173" fill="none" xmlns="http://www.w3.org/2000/svg">
<path fill-rule="evenodd" clip-rule="evenodd" d="M8.02015 122.685C8.63763 122.465 9.28741 122.172 9.78849 121.749C10.3836 121.246 10.6256 120.598 10.7882 119.917C10.9968 119.041 11.0802 118.108 11.3332 117.231C11.4269 116.905 11.6072 116.782 11.6846 116.727C11.8801 116.589 12.0778 116.552 12.2637 116.566C12.4841 116.582 12.7868 116.665 12.9859 117.035C13.0143 117.088 13.0512 117.168 13.076 117.279C13.0941 117.36 13.1058 117.613 13.125 117.717C13.1729 117.974 13.213 118.231 13.2506 118.489C13.3759 119.349 13.4479 120.079 13.8436 120.869C14.3805 121.942 14.9185 122.598 15.6481 122.888C16.3536 123.169 17.1972 123.117 18.2749 122.896C18.3775 122.871 18.4789 122.85 18.5794 122.833C19.0545 122.75 19.5088 123.062 19.6021 123.535C19.6954 124.008 19.3935 124.469 18.9225 124.573C18.8242 124.595 18.7274 124.615 18.6315 124.634C17.1751 124.995 15.4891 126.281 14.5093 127.408C14.2073 127.756 13.7652 128.727 13.3141 129.346C12.9813 129.803 12.6072 130.105 12.2932 130.211C12.0827 130.283 11.9053 130.272 11.7587 130.236C11.5458 130.183 11.3691 130.068 11.2335 129.884C11.1597 129.784 11.0912 129.649 11.0586 129.478C11.043 129.395 11.0412 129.185 11.0415 129.09C10.9496 128.774 10.8371 128.465 10.7552 128.146C10.5596 127.385 10.176 126.903 9.72035 126.266C9.29415 125.67 8.83638 125.296 8.16532 124.997C8.07802 124.976 7.3736 124.803 7.12483 124.704C6.76144 124.559 6.58826 124.316 6.52544 124.185C6.41863 123.963 6.40764 123.769 6.42893 123.607C6.46051 123.368 6.56768 123.164 6.75789 122.999C6.87571 122.896 7.05173 122.797 7.28736 122.748C7.46941 122.71 7.95237 122.688 8.02015 122.685ZM12.1526 121.444C12.1853 121.517 12.2201 121.59 12.257 121.664C13.0434 123.234 13.9227 124.111 14.9916 124.537L15.0275 124.551C14.3124 125.082 13.6651 125.675 13.1704 126.244C12.9667 126.478 12.697 126.964 12.4057 127.463C12.1409 126.603 11.708 125.995 11.1636 125.233C10.7477 124.653 10.3119 124.215 9.77643 123.859C10.192 123.646 10.5884 123.396 10.9337 123.104C11.5086 122.618 11.8886 122.056 12.1526 121.444Z" fill="#1749B3"/>
<circle cx="23.7199" cy="17.9533" r="3.46" fill="#1749B3"/>
<circle cx="161.543" cy="90.0367" r="3.46" fill="#1749B3"/>
<path d="M80.81 145.973C117.117 145.973 146.55 116.541 146.55 80.2333C146.55 43.9261 117.117 14.4933 80.81 14.4933C44.5028 14.4933 15.07 43.9261 15.07 80.2333C15.07 116.541 44.5028 145.973 80.81 145.973Z" fill="url(#paint0_linear_188_109)"/>
<path fill-rule="evenodd" clip-rule="evenodd" d="M80.5216 40.4433C87.6875 40.4433 93.4966 34.6342 93.4966 27.4683C93.4966 20.3024 87.6875 14.4933 80.5216 14.4933C73.3557 14.4933 67.5466 20.3024 67.5466 27.4683C67.5466 34.6342 73.3557 40.4433 80.5216 40.4433ZM80.2333 34.6767C84.0551 34.6767 87.1533 31.5785 87.1533 27.7567C87.1533 23.9349 84.0551 20.8367 80.2333 20.8367C76.4115 20.8367 73.3133 23.9349 73.3133 27.7567C73.3133 31.5785 76.4115 34.6767 80.2333 34.6767Z" fill="#011625"/>
<path d="M80.2621 131.614C94.2913 131.614 105.664 120.241 105.664 106.212C105.664 92.1829 94.2913 80.81 80.2621 80.81C66.2329 80.81 54.86 92.1829 54.86 106.212C54.86 120.241 66.2329 131.614 80.2621 131.614Z" fill="#FE0000"/>
<path d="M120.466 87.3257V67.8372C120.466 57.2072 116.243 47.0126 108.726 39.496C101.21 31.9794 91.0151 27.7567 80.3851 27.7567C69.755 27.7567 59.5604 31.9794 52.0438 39.496C44.5273 47.0126 40.3045 57.2072 40.3045 67.8372V87.3257C40.305 91.8031 39.0384 96.1891 36.6511 99.9769C34.2639 103.765 30.8535 106.8 26.8141 108.731C25.8857 109.173 25.102 109.87 24.5542 110.74C24.0064 111.61 23.7171 112.618 23.72 113.647V113.752C23.7193 114.124 23.7919 114.491 23.9335 114.835C24.0752 115.178 24.2831 115.49 24.5455 115.753C24.8079 116.016 25.1195 116.224 25.4626 116.367C25.8056 116.509 26.1734 116.582 26.5448 116.582H134.22C134.591 116.582 134.959 116.509 135.302 116.367C135.645 116.224 135.957 116.016 136.219 115.753C136.482 115.49 136.69 115.178 136.831 114.835C136.973 114.491 137.046 114.124 137.045 113.752V113.647C137.045 112.622 136.755 111.617 136.209 110.75C135.662 109.883 134.881 109.188 133.956 108.747C129.914 106.814 126.502 103.777 124.115 99.9861C121.727 96.1952 120.462 91.8057 120.466 87.3257Z" fill="#E1DCEB"/>
<path fill-rule="evenodd" clip-rule="evenodd" d="M137.323 116.563H23.72V113.103H137.323V116.563Z" fill="#011625"/>
<path fill-rule="evenodd" clip-rule="evenodd" d="M49.1557 125.387C46.3931 127.886 43.6384 130.333 40.9499 132.911C40.3695 133.464 40.3476 134.374 40.8967 134.948C41.4476 135.528 42.3635 135.546 42.9384 134.995C45.614 132.434 48.3448 130.007 51.0889 127.526C51.6801 126.988 51.7259 126.076 51.197 125.489C50.6608 124.899 49.7469 124.85 49.1557 125.387Z" fill="#011625"/>
<path fill-rule="evenodd" clip-rule="evenodd" d="M111.56 125.388C114.307 127.888 117.047 130.336 119.719 132.914C120.296 133.466 120.314 134.376 119.762 134.949C119.209 135.528 118.294 135.545 117.723 134.994C115.063 132.432 112.347 130.004 109.618 127.523C109.031 126.986 108.989 126.074 109.521 125.488C110.059 124.899 110.972 124.851 111.56 125.388Z" fill="#011625"/>
<path fill-rule="evenodd" clip-rule="evenodd" d="M78.5911 141.531C78.5473 145.247 78.4715 148.924 78.536 152.64C78.5469 153.439 79.1998 154.071 79.9932 154.056C80.7918 154.044 81.4268 153.384 81.4134 152.59C81.3521 148.894 81.4263 145.249 81.4708 141.558C81.478 140.761 80.84 140.11 80.0511 140.101C79.2545 140.096 78.5982 140.733 78.5911 141.531Z" fill="#011625"/>
<defs>
<linearGradient id="paint0_linear_188_109" x1="80.3032" y1="-6.91323" x2="81.6499" y2="223.956" gradientUnits="userSpaceOnUse">
<stop stop-color="#F9F9F9"/>
<stop offset="1" stop-color="#EFEFEF"/>
</linearGradient>
</defs>
</svg>
