<svg width="185" height="185" viewBox="0 0 185 185" fill="none" xmlns="http://www.w3.org/2000/svg">
<path d="M90.2804 149.877C122.182 149.877 148.044 124.299 148.044 92.7483C148.044 61.1972 122.182 35.62 90.2804 35.62C58.3785 35.62 32.5168 61.1972 32.5168 92.7483C32.5168 124.299 58.3785 149.877 90.2804 149.877Z" fill="url(#paint0_linear_188_115)"/>
<path fill-rule="evenodd" clip-rule="evenodd" d="M140.118 129.165C140.645 128.98 141.199 128.733 141.626 128.376C142.133 127.952 142.339 127.406 142.478 126.832C142.656 126.093 142.727 125.307 142.943 124.567C143.023 124.292 143.176 124.188 143.242 124.142C143.409 124.026 143.577 123.995 143.736 124.007C143.924 124.02 144.182 124.09 144.352 124.402C144.376 124.446 144.407 124.514 144.428 124.607C144.444 124.676 144.454 124.889 144.47 124.977C144.511 125.193 144.545 125.41 144.577 125.628C144.684 126.353 144.745 126.969 145.083 127.635C145.54 128.539 145.999 129.092 146.621 129.337C147.223 129.574 147.942 129.529 148.86 129.344C148.948 129.323 149.034 129.305 149.12 129.29C149.525 129.22 149.912 129.483 149.992 129.882C150.071 130.281 149.814 130.67 149.412 130.757C149.329 130.776 149.246 130.793 149.164 130.809C147.923 131.113 146.486 132.198 145.65 133.148C145.393 133.441 145.016 134.259 144.631 134.782C144.348 135.167 144.029 135.421 143.761 135.511C143.582 135.571 143.43 135.562 143.305 135.532C143.124 135.487 142.973 135.39 142.858 135.235C142.795 135.151 142.736 135.037 142.709 134.893C142.695 134.823 142.694 134.646 142.694 134.566C142.616 134.299 142.52 134.039 142.45 133.77C142.283 133.128 141.956 132.722 141.568 132.185C141.204 131.682 140.814 131.367 140.242 131.115C140.168 131.097 139.567 130.952 139.355 130.868C139.045 130.746 138.898 130.541 138.844 130.43C138.753 130.243 138.744 130.079 138.762 129.943C138.789 129.742 138.88 129.569 139.042 129.43C139.143 129.344 139.293 129.26 139.494 129.219C139.649 129.187 140.061 129.168 140.118 129.165ZM143.641 128.119C143.669 128.181 143.699 128.242 143.73 128.305C144.401 129.629 145.15 130.368 146.061 130.727L146.092 130.739C145.482 131.186 144.931 131.686 144.509 132.166C144.335 132.363 144.105 132.774 143.857 133.194C143.631 132.469 143.262 131.956 142.798 131.314C142.444 130.824 142.072 130.456 141.615 130.155C141.97 129.976 142.308 129.765 142.602 129.519C143.092 129.109 143.416 128.635 143.641 128.119Z" fill="#1749B3"/>
<ellipse cx="24.7656" cy="81.6159" rx="2.73572" ry="2.70564" fill="#1749B3"/>
<path d="M48.4212 57.3705C48.5039 57.6573 48.8066 57.8224 49.0962 57.7386C49.3836 57.655 49.5512 57.3539 49.4663 57.0671L48.4212 57.3705ZM48.4212 57.3705L48.1794 57.4403C48.3013 57.8629 48.7452 58.1022 49.1661 57.9803L49.1665 57.9802C49.5853 57.8584 49.8327 57.4187 49.7077 56.9959C48.9048 54.2587 47.3175 52.1128 44.8944 50.5655C44.526 50.3301 44.033 50.4357 43.7962 50.8045C43.5568 51.1741 43.6664 51.6653 44.0355 51.9012L44.0356 51.9012C46.1258 53.2353 47.4867 55.0781 48.1797 57.4414L48.4212 57.3705Z" fill="#011625" stroke="#011625" stroke-width="0.503333"/>
<path d="M74.0007 58.2764L74.0009 58.2764C74.5468 58.0004 74.7432 57.4723 74.6933 56.908C74.6492 56.3923 74.3746 55.8172 74.2259 55.5559C74.2259 55.5558 74.2258 55.5558 74.2258 55.5557L74.0071 55.6802L74.0007 58.2764ZM74.0007 58.2764C73.3663 58.5966 72.8253 58.5755 72.3932 58.3614C71.9809 58.1577 71.6796 57.7682 71.4964 57.2849L71.4964 57.2849M74.0007 58.2764L71.4964 57.2849M71.4964 57.2849C71.3219 56.8239 71.2523 56.257 71.245 55.7213C71.2385 55.2438 71.2814 54.7744 71.3533 54.4017C70.9391 53.9878 70.4885 53.6101 70.0082 53.2715C66.1982 50.5859 60.5501 51.5457 56.1549 55.6497C55.4225 56.3339 54.8627 57.4132 54.4376 58.7533C54.0138 60.0892 53.7315 61.659 53.5375 63.2988L53.5375 63.2988M71.4964 57.2849L53.5375 63.2988M53.5375 63.2988C53.0117 67.7399 53.2038 72.6334 53.2945 74.9458C53.3082 75.2927 53.3195 75.5815 53.3258 75.802L53.3258 75.8026M53.5375 63.2988L53.3258 75.8026M53.3258 75.8026C53.3315 76.0188 53.3242 76.194 53.312 76.3245C53.3059 76.3896 53.2985 76.4452 53.2904 76.4903C53.2838 76.527 53.2734 76.5766 53.2554 76.6183M53.3258 75.8026L53.2554 76.6183M37.6696 51.0356C37.8677 50.8121 38.2118 50.7917 38.4382 50.9901M37.6696 51.0356C37.4693 51.2591 37.4911 51.6018 37.7154 51.8C42.2942 55.8436 45.1539 61.3194 47.9452 66.6643C48.2028 67.1574 48.4597 67.6494 48.7174 68.1391L38.4382 50.9901M37.6696 51.0356L37.4813 50.8687C37.4814 50.8685 37.4816 50.8683 37.4817 50.8681C37.4819 50.868 37.482 50.8678 37.4822 50.8676L37.6696 51.0356ZM38.4382 50.9901C43.148 55.1483 46.0929 60.7782 48.9657 66.2703M38.4382 50.9901L48.9657 66.2703M53.2554 76.6183C53.2556 76.6179 53.2557 76.6175 53.2559 76.6171L53.0241 76.519L53.2543 76.6209C53.2546 76.62 53.255 76.6192 53.2554 76.6183ZM51.5976 71.0295C51.5734 68.3233 51.6575 64.9733 52.1112 61.9531C52.348 60.3759 52.6928 58.8825 53.1725 57.6007C53.6513 56.3214 54.2707 55.236 55.0667 54.4923L55.0667 54.4923C59.997 49.8885 66.4849 48.8437 70.9275 51.9766L70.9276 51.9767C71.3121 52.2481 71.6822 52.5418 72.0329 52.8567C74.4166 48.8899 79.2669 47.3344 83.5606 49.2841C83.5607 49.2841 83.5607 49.2841 83.5607 49.2842L51.5976 71.0295ZM51.5976 71.0295C51.6859 71.2352 51.7723 71.4419 51.8568 71.6496C51.8605 71.8959 51.8651 72.1358 51.8702 72.3685L51.5976 71.0295ZM51.5976 71.0295C51.5996 71.2581 51.6024 71.482 51.6059 71.7008L51.5976 71.0295ZM73.0893 56.9367C73.0857 56.9361 73.0865 56.937 73.0945 56.9358L73.0893 56.9367ZM73.0893 56.9367C73.0904 56.9413 73.0914 56.946 73.0925 56.9506C73.0928 56.9524 73.0932 56.9543 73.0935 56.9565C73.0936 56.9572 73.0938 56.9581 73.0939 56.9589C73.0961 56.9731 73.0983 56.9949 73.0999 57.0225C73.1017 57.0546 73.1022 57.0856 73.1022 57.105L73.0893 56.9367ZM48.9657 66.2703C49.2046 66.7271 49.4431 67.1829 49.682 67.6368L48.9657 66.2703ZM72.9859 56.7243L72.986 56.7246C73.0153 56.8018 73.0382 56.8554 73.0623 56.8947C73.0726 56.9116 73.0811 56.9223 73.0875 56.9291C73.0481 56.764 72.9732 56.5925 72.9068 56.461C72.9288 56.5547 72.955 56.6432 72.9859 56.7243Z" fill="#011625" stroke="#011625" stroke-width="0.503333"/>
<rect x="63.6212" y="65.2598" width="99.4368" height="35.4515" rx="12.08" fill="#011625"/>
<rect x="104.668" y="77.4644" width="33.531" height="4.64938" rx="2.32469" fill="#CCC6D9"/>
<rect x="72.2931" y="84.4384" width="66.0747" height="4.64938" rx="2.32469" fill="white"/>
<ellipse cx="150.339" cy="83.2761" rx="5.78121" ry="5.81173" fill="#E1DCEB"/>
<rect x="22.0299" y="94.8996" width="99.4368" height="35.4515" rx="12.08" fill="#E1DCEB"/>
<rect x="46.889" y="107.104" width="33.531" height="4.64938" rx="2.32469" fill="#FE0000"/>
<rect x="46.889" y="114.078" width="66.0747" height="4.64938" rx="2.32469" fill="white"/>
<ellipse cx="36.4829" cy="112.916" rx="5.78121" ry="5.81173" fill="#FE0000"/>
<defs>
<linearGradient id="paint0_linear_188_115" x1="89.8351" y1="17.0176" x2="90.9925" y2="217.644" gradientUnits="userSpaceOnUse">
<stop stop-color="#E9E6E6"/>
<stop offset="0.276042" stop-color="#F7F7F7"/>
</linearGradient>
</defs>
</svg>
