<?xml version="1.0" standalone="no"?>
<!DOCTYPE svg PUBLIC "-//W3C//DTD SVG 20010904//EN"
 "http://www.w3.org/TR/2001/REC-SVG-20010904/DTD/svg10.dtd">
<svg version="1.0" xmlns="http://www.w3.org/2000/svg"
 width="902.000000pt" height="902.000000pt" viewBox="0 0 902.000000 902.000000"
 preserveAspectRatio="xMidYMid meet">
<metadata>
Created by potrace 1.14, written by Peter Selinger 2001-2017
</metadata>
<g transform="translate(0.000000,902.000000) scale(0.100000,-0.100000)"
fill="#000000" stroke="none">
<path d="M4195 8729 c-572 -34 -1119 -179 -1625 -433 -744 -372 -1364 -965
-1772 -1694 -235 -419 -408 -925 -477 -1392 -38 -262 -46 -363 -45 -640 0
-355 30 -613 110 -960 33 -140 129 -454 155 -501 9 -18 44 -19 1174 -19 l1165
0 0 2034 c0 2006 0 2034 20 2058 10 14 32 31 48 37 22 9 261 11 988 8 1039 -4
1037 -4 1300 -62 172 -38 338 -96 509 -179 717 -347 1194 -1045 1337 -1956 19
-127 22 -183 23 -455 0 -274 -3 -327 -23 -455 -53 -339 -141 -619 -284 -903
-241 -477 -619 -850 -1078 -1064 -129 -61 -358 -136 -510 -168 -284 -60 -224
-58 -2179 -64 l-1795 -6 62 -72 c84 -98 279 -293 382 -385 680 -599 1493 -945
2415 -1028 164 -15 540 -12 721 5 886 84 1694 433 2364 1021 774 680 1264
1616 1386 2649 21 181 29 585 15 775 -45 594 -203 1139 -481 1659 -86 162
-110 202 -222 369 -451 676 -1143 1231 -1914 1535 -434 171 -838 258 -1328
287 -196 11 -235 11 -441 -1z"/>
<path d="M4047 6063 c-4 -3 -7 -674 -7 -1491 l0 -1484 408 5 c360 4 418 7 502
25 328 70 552 220 737 492 94 139 183 365 230 585 26 122 27 145 27 380 0 234
-2 259 -28 384 -69 336 -180 557 -380 757 -217 215 -446 317 -781 345 -126 10
-698 12 -708 2z"/>
</g>
</svg>
